<mxfile host="app.diagrams.net" modified="2024-05-22T19:13:33.706Z" agent="Mozilla/5.0 (Windows NT 10.0; Win64; x64) AppleWebKit/537.36 (KHTML, like Gecko) Chrome/124.0.0.0 Safari/537.36" etag="uXfMKfO5EwGDu3gxGqn2" version="24.4.6" type="device">
  <diagram name="ER-diagram" id="6KKgcX3Cq315mcsqgXCf">
    <mxGraphModel dx="1838" dy="1009" grid="1" gridSize="10" guides="1" tooltips="1" connect="1" arrows="1" fold="1" page="1" pageScale="1" pageWidth="827" pageHeight="1169" math="0" shadow="0">
      <root>
        <mxCell id="0" />
        <mxCell id="1" parent="0" />
        <mxCell id="5FP1IzFym2wmlCKe2uCG-4" value="service_request" style="shape=table;startSize=30;container=1;collapsible=1;childLayout=tableLayout;fixedRows=1;rowLines=0;fontStyle=1;align=center;resizeLast=1;html=1;strokeColor=#E07A5F;rounded=1;labelBackgroundColor=none;fillColor=#F2CC8F;fontColor=#393C56;" vertex="1" parent="1">
          <mxGeometry x="320" y="270" width="180" height="280.0000000000002" as="geometry" />
        </mxCell>
        <mxCell id="5FP1IzFym2wmlCKe2uCG-5" value="" style="shape=tableRow;horizontal=0;startSize=0;swimlaneHead=0;swimlaneBody=0;fillColor=none;collapsible=0;dropTarget=0;points=[[0,0.5],[1,0.5]];portConstraint=eastwest;top=0;left=0;right=0;bottom=1;strokeColor=#E07A5F;rounded=1;labelBackgroundColor=none;fontColor=#393C56;" vertex="1" parent="5FP1IzFym2wmlCKe2uCG-4">
          <mxGeometry y="30" width="180" height="40" as="geometry" />
        </mxCell>
        <mxCell id="5FP1IzFym2wmlCKe2uCG-6" value="PK" style="shape=partialRectangle;connectable=0;fillColor=none;top=0;left=0;bottom=0;right=0;fontStyle=1;overflow=hidden;whiteSpace=wrap;html=1;strokeColor=#E07A5F;rounded=1;labelBackgroundColor=none;fontColor=#393C56;" vertex="1" parent="5FP1IzFym2wmlCKe2uCG-5">
          <mxGeometry width="30" height="40" as="geometry">
            <mxRectangle width="30" height="40" as="alternateBounds" />
          </mxGeometry>
        </mxCell>
        <mxCell id="5FP1IzFym2wmlCKe2uCG-7" value="id" style="shape=partialRectangle;connectable=0;fillColor=none;top=0;left=0;bottom=0;right=0;align=left;spacingLeft=6;fontStyle=5;overflow=hidden;whiteSpace=wrap;html=1;strokeColor=#E07A5F;rounded=1;labelBackgroundColor=none;fontColor=#393C56;" vertex="1" parent="5FP1IzFym2wmlCKe2uCG-5">
          <mxGeometry x="30" width="150" height="40" as="geometry">
            <mxRectangle width="150" height="40" as="alternateBounds" />
          </mxGeometry>
        </mxCell>
        <mxCell id="5FP1IzFym2wmlCKe2uCG-8" value="" style="shape=tableRow;horizontal=0;startSize=0;swimlaneHead=0;swimlaneBody=0;fillColor=none;collapsible=0;dropTarget=0;points=[[0,0.5],[1,0.5]];portConstraint=eastwest;top=0;left=0;right=0;bottom=0;strokeColor=#E07A5F;rounded=1;labelBackgroundColor=none;fontColor=#393C56;" vertex="1" parent="5FP1IzFym2wmlCKe2uCG-4">
          <mxGeometry y="70" width="180" height="30" as="geometry" />
        </mxCell>
        <mxCell id="5FP1IzFym2wmlCKe2uCG-9" value="" style="shape=partialRectangle;connectable=0;fillColor=none;top=0;left=0;bottom=0;right=0;editable=1;overflow=hidden;whiteSpace=wrap;html=1;strokeColor=#E07A5F;rounded=1;labelBackgroundColor=none;fontColor=#393C56;" vertex="1" parent="5FP1IzFym2wmlCKe2uCG-8">
          <mxGeometry width="30" height="30" as="geometry">
            <mxRectangle width="30" height="30" as="alternateBounds" />
          </mxGeometry>
        </mxCell>
        <mxCell id="5FP1IzFym2wmlCKe2uCG-10" value="start_date" style="shape=partialRectangle;connectable=0;fillColor=none;top=0;left=0;bottom=0;right=0;align=left;spacingLeft=6;overflow=hidden;whiteSpace=wrap;html=1;strokeColor=#E07A5F;rounded=1;labelBackgroundColor=none;fontColor=#393C56;" vertex="1" parent="5FP1IzFym2wmlCKe2uCG-8">
          <mxGeometry x="30" width="150" height="30" as="geometry">
            <mxRectangle width="150" height="30" as="alternateBounds" />
          </mxGeometry>
        </mxCell>
        <mxCell id="5FP1IzFym2wmlCKe2uCG-11" value="" style="shape=tableRow;horizontal=0;startSize=0;swimlaneHead=0;swimlaneBody=0;fillColor=none;collapsible=0;dropTarget=0;points=[[0,0.5],[1,0.5]];portConstraint=eastwest;top=0;left=0;right=0;bottom=0;strokeColor=#E07A5F;rounded=1;labelBackgroundColor=none;fontColor=#393C56;" vertex="1" parent="5FP1IzFym2wmlCKe2uCG-4">
          <mxGeometry y="100" width="180" height="30" as="geometry" />
        </mxCell>
        <mxCell id="5FP1IzFym2wmlCKe2uCG-12" value="" style="shape=partialRectangle;connectable=0;fillColor=none;top=0;left=0;bottom=0;right=0;editable=1;overflow=hidden;whiteSpace=wrap;html=1;strokeColor=#E07A5F;rounded=1;labelBackgroundColor=none;fontColor=#393C56;" vertex="1" parent="5FP1IzFym2wmlCKe2uCG-11">
          <mxGeometry width="30" height="30" as="geometry">
            <mxRectangle width="30" height="30" as="alternateBounds" />
          </mxGeometry>
        </mxCell>
        <mxCell id="5FP1IzFym2wmlCKe2uCG-13" value="tech_type" style="shape=partialRectangle;connectable=0;fillColor=none;top=0;left=0;bottom=0;right=0;align=left;spacingLeft=6;overflow=hidden;whiteSpace=wrap;html=1;strokeColor=#E07A5F;rounded=1;labelBackgroundColor=none;fontColor=#393C56;" vertex="1" parent="5FP1IzFym2wmlCKe2uCG-11">
          <mxGeometry x="30" width="150" height="30" as="geometry">
            <mxRectangle width="150" height="30" as="alternateBounds" />
          </mxGeometry>
        </mxCell>
        <mxCell id="5FP1IzFym2wmlCKe2uCG-14" value="" style="shape=tableRow;horizontal=0;startSize=0;swimlaneHead=0;swimlaneBody=0;fillColor=none;collapsible=0;dropTarget=0;points=[[0,0.5],[1,0.5]];portConstraint=eastwest;top=0;left=0;right=0;bottom=0;strokeColor=#E07A5F;rounded=1;labelBackgroundColor=none;fontColor=#393C56;" vertex="1" parent="5FP1IzFym2wmlCKe2uCG-4">
          <mxGeometry y="130" width="180" height="30" as="geometry" />
        </mxCell>
        <mxCell id="5FP1IzFym2wmlCKe2uCG-15" value="" style="shape=partialRectangle;connectable=0;fillColor=none;top=0;left=0;bottom=0;right=0;editable=1;overflow=hidden;whiteSpace=wrap;html=1;strokeColor=#E07A5F;rounded=1;labelBackgroundColor=none;fontColor=#393C56;" vertex="1" parent="5FP1IzFym2wmlCKe2uCG-14">
          <mxGeometry width="30" height="30" as="geometry">
            <mxRectangle width="30" height="30" as="alternateBounds" />
          </mxGeometry>
        </mxCell>
        <mxCell id="5FP1IzFym2wmlCKe2uCG-16" value="tech_model" style="shape=partialRectangle;connectable=0;fillColor=none;top=0;left=0;bottom=0;right=0;align=left;spacingLeft=6;overflow=hidden;whiteSpace=wrap;html=1;strokeColor=#E07A5F;rounded=1;labelBackgroundColor=none;fontColor=#393C56;" vertex="1" parent="5FP1IzFym2wmlCKe2uCG-14">
          <mxGeometry x="30" width="150" height="30" as="geometry">
            <mxRectangle width="150" height="30" as="alternateBounds" />
          </mxGeometry>
        </mxCell>
        <mxCell id="5FP1IzFym2wmlCKe2uCG-17" style="shape=tableRow;horizontal=0;startSize=0;swimlaneHead=0;swimlaneBody=0;fillColor=none;collapsible=0;dropTarget=0;points=[[0,0.5],[1,0.5]];portConstraint=eastwest;top=0;left=0;right=0;bottom=0;strokeColor=#E07A5F;rounded=1;labelBackgroundColor=none;fontColor=#393C56;" vertex="1" parent="5FP1IzFym2wmlCKe2uCG-4">
          <mxGeometry y="160" width="180" height="30" as="geometry" />
        </mxCell>
        <mxCell id="5FP1IzFym2wmlCKe2uCG-18" style="shape=partialRectangle;connectable=0;fillColor=none;top=0;left=0;bottom=0;right=0;editable=1;overflow=hidden;whiteSpace=wrap;html=1;strokeColor=#E07A5F;rounded=1;labelBackgroundColor=none;fontColor=#393C56;" vertex="1" parent="5FP1IzFym2wmlCKe2uCG-17">
          <mxGeometry width="30" height="30" as="geometry">
            <mxRectangle width="30" height="30" as="alternateBounds" />
          </mxGeometry>
        </mxCell>
        <mxCell id="5FP1IzFym2wmlCKe2uCG-19" value="description" style="shape=partialRectangle;connectable=0;fillColor=none;top=0;left=0;bottom=0;right=0;align=left;spacingLeft=6;overflow=hidden;whiteSpace=wrap;html=1;strokeColor=#E07A5F;rounded=1;labelBackgroundColor=none;fontColor=#393C56;" vertex="1" parent="5FP1IzFym2wmlCKe2uCG-17">
          <mxGeometry x="30" width="150" height="30" as="geometry">
            <mxRectangle width="150" height="30" as="alternateBounds" />
          </mxGeometry>
        </mxCell>
        <mxCell id="5FP1IzFym2wmlCKe2uCG-20" style="shape=tableRow;horizontal=0;startSize=0;swimlaneHead=0;swimlaneBody=0;fillColor=none;collapsible=0;dropTarget=0;points=[[0,0.5],[1,0.5]];portConstraint=eastwest;top=0;left=0;right=0;bottom=0;strokeColor=#E07A5F;rounded=1;labelBackgroundColor=none;fontColor=#393C56;" vertex="1" parent="5FP1IzFym2wmlCKe2uCG-4">
          <mxGeometry y="190" width="180" height="30" as="geometry" />
        </mxCell>
        <mxCell id="5FP1IzFym2wmlCKe2uCG-21" style="shape=partialRectangle;connectable=0;fillColor=none;top=0;left=0;bottom=0;right=0;editable=1;overflow=hidden;whiteSpace=wrap;html=1;strokeColor=#E07A5F;rounded=1;labelBackgroundColor=none;fontColor=#393C56;" vertex="1" parent="5FP1IzFym2wmlCKe2uCG-20">
          <mxGeometry width="30" height="30" as="geometry">
            <mxRectangle width="30" height="30" as="alternateBounds" />
          </mxGeometry>
        </mxCell>
        <mxCell id="5FP1IzFym2wmlCKe2uCG-22" value="completion_date" style="shape=partialRectangle;connectable=0;fillColor=none;top=0;left=0;bottom=0;right=0;align=left;spacingLeft=6;overflow=hidden;whiteSpace=wrap;html=1;strokeColor=#E07A5F;rounded=1;labelBackgroundColor=none;fontColor=#393C56;" vertex="1" parent="5FP1IzFym2wmlCKe2uCG-20">
          <mxGeometry x="30" width="150" height="30" as="geometry">
            <mxRectangle width="150" height="30" as="alternateBounds" />
          </mxGeometry>
        </mxCell>
        <mxCell id="5FP1IzFym2wmlCKe2uCG-23" style="shape=tableRow;horizontal=0;startSize=0;swimlaneHead=0;swimlaneBody=0;fillColor=none;collapsible=0;dropTarget=0;points=[[0,0.5],[1,0.5]];portConstraint=eastwest;top=0;left=0;right=0;bottom=0;strokeColor=#E07A5F;rounded=1;labelBackgroundColor=none;fontColor=#393C56;" vertex="1" parent="5FP1IzFym2wmlCKe2uCG-4">
          <mxGeometry y="220" width="180" height="30" as="geometry" />
        </mxCell>
        <mxCell id="5FP1IzFym2wmlCKe2uCG-24" value="FK" style="shape=partialRectangle;connectable=0;fillColor=none;top=0;left=0;bottom=0;right=0;editable=1;overflow=hidden;whiteSpace=wrap;html=1;strokeColor=#E07A5F;rounded=1;labelBackgroundColor=none;fontColor=#393C56;" vertex="1" parent="5FP1IzFym2wmlCKe2uCG-23">
          <mxGeometry width="30" height="30" as="geometry">
            <mxRectangle width="30" height="30" as="alternateBounds" />
          </mxGeometry>
        </mxCell>
        <mxCell id="5FP1IzFym2wmlCKe2uCG-25" value="status_id" style="shape=partialRectangle;connectable=0;fillColor=none;top=0;left=0;bottom=0;right=0;align=left;spacingLeft=6;overflow=hidden;whiteSpace=wrap;html=1;strokeColor=#E07A5F;rounded=1;labelBackgroundColor=none;fontColor=#393C56;" vertex="1" parent="5FP1IzFym2wmlCKe2uCG-23">
          <mxGeometry x="30" width="150" height="30" as="geometry">
            <mxRectangle width="150" height="30" as="alternateBounds" />
          </mxGeometry>
        </mxCell>
        <mxCell id="5FP1IzFym2wmlCKe2uCG-26" style="shape=tableRow;horizontal=0;startSize=0;swimlaneHead=0;swimlaneBody=0;fillColor=none;collapsible=0;dropTarget=0;points=[[0,0.5],[1,0.5]];portConstraint=eastwest;top=0;left=0;right=0;bottom=0;strokeColor=#E07A5F;rounded=1;labelBackgroundColor=none;fontColor=#393C56;" vertex="1" parent="5FP1IzFym2wmlCKe2uCG-4">
          <mxGeometry y="250" width="180" height="30" as="geometry" />
        </mxCell>
        <mxCell id="5FP1IzFym2wmlCKe2uCG-27" value="FK" style="shape=partialRectangle;connectable=0;fillColor=none;top=0;left=0;bottom=0;right=0;editable=1;overflow=hidden;whiteSpace=wrap;html=1;strokeColor=#E07A5F;rounded=1;labelBackgroundColor=none;fontColor=#393C56;" vertex="1" parent="5FP1IzFym2wmlCKe2uCG-26">
          <mxGeometry width="30" height="30" as="geometry">
            <mxRectangle width="30" height="30" as="alternateBounds" />
          </mxGeometry>
        </mxCell>
        <mxCell id="5FP1IzFym2wmlCKe2uCG-28" value="client_id" style="shape=partialRectangle;connectable=0;fillColor=none;top=0;left=0;bottom=0;right=0;align=left;spacingLeft=6;overflow=hidden;whiteSpace=wrap;html=1;strokeColor=#E07A5F;rounded=1;labelBackgroundColor=none;fontColor=#393C56;" vertex="1" parent="5FP1IzFym2wmlCKe2uCG-26">
          <mxGeometry x="30" width="150" height="30" as="geometry">
            <mxRectangle width="150" height="30" as="alternateBounds" />
          </mxGeometry>
        </mxCell>
        <mxCell id="5FP1IzFym2wmlCKe2uCG-29" value="user" style="shape=table;startSize=30;container=1;collapsible=1;childLayout=tableLayout;fixedRows=1;rowLines=0;fontStyle=1;align=center;resizeLast=1;html=1;strokeColor=#E07A5F;rounded=1;labelBackgroundColor=none;fillColor=#F2CC8F;fontColor=#393C56;" vertex="1" parent="1">
          <mxGeometry x="60" y="180" width="180" height="280" as="geometry" />
        </mxCell>
        <mxCell id="5FP1IzFym2wmlCKe2uCG-30" value="" style="shape=tableRow;horizontal=0;startSize=0;swimlaneHead=0;swimlaneBody=0;fillColor=none;collapsible=0;dropTarget=0;points=[[0,0.5],[1,0.5]];portConstraint=eastwest;top=0;left=0;right=0;bottom=1;strokeColor=#E07A5F;rounded=1;labelBackgroundColor=none;fontColor=#393C56;" vertex="1" parent="5FP1IzFym2wmlCKe2uCG-29">
          <mxGeometry y="30" width="180" height="40" as="geometry" />
        </mxCell>
        <mxCell id="5FP1IzFym2wmlCKe2uCG-31" value="PK" style="shape=partialRectangle;connectable=0;fillColor=none;top=0;left=0;bottom=0;right=0;fontStyle=1;overflow=hidden;whiteSpace=wrap;html=1;strokeColor=#E07A5F;rounded=1;labelBackgroundColor=none;fontColor=#393C56;" vertex="1" parent="5FP1IzFym2wmlCKe2uCG-30">
          <mxGeometry width="30" height="40" as="geometry">
            <mxRectangle width="30" height="40" as="alternateBounds" />
          </mxGeometry>
        </mxCell>
        <mxCell id="5FP1IzFym2wmlCKe2uCG-32" value="id" style="shape=partialRectangle;connectable=0;fillColor=none;top=0;left=0;bottom=0;right=0;align=left;spacingLeft=6;fontStyle=5;overflow=hidden;whiteSpace=wrap;html=1;strokeColor=#E07A5F;rounded=1;labelBackgroundColor=none;fontColor=#393C56;" vertex="1" parent="5FP1IzFym2wmlCKe2uCG-30">
          <mxGeometry x="30" width="150" height="40" as="geometry">
            <mxRectangle width="150" height="40" as="alternateBounds" />
          </mxGeometry>
        </mxCell>
        <mxCell id="5FP1IzFym2wmlCKe2uCG-33" value="" style="shape=tableRow;horizontal=0;startSize=0;swimlaneHead=0;swimlaneBody=0;fillColor=none;collapsible=0;dropTarget=0;points=[[0,0.5],[1,0.5]];portConstraint=eastwest;top=0;left=0;right=0;bottom=0;strokeColor=#E07A5F;rounded=1;labelBackgroundColor=none;fontColor=#393C56;" vertex="1" parent="5FP1IzFym2wmlCKe2uCG-29">
          <mxGeometry y="70" width="180" height="30" as="geometry" />
        </mxCell>
        <mxCell id="5FP1IzFym2wmlCKe2uCG-34" value="" style="shape=partialRectangle;connectable=0;fillColor=none;top=0;left=0;bottom=0;right=0;editable=1;overflow=hidden;whiteSpace=wrap;html=1;strokeColor=#E07A5F;rounded=1;labelBackgroundColor=none;fontColor=#393C56;" vertex="1" parent="5FP1IzFym2wmlCKe2uCG-33">
          <mxGeometry width="30" height="30" as="geometry">
            <mxRectangle width="30" height="30" as="alternateBounds" />
          </mxGeometry>
        </mxCell>
        <mxCell id="5FP1IzFym2wmlCKe2uCG-35" value="name" style="shape=partialRectangle;connectable=0;fillColor=none;top=0;left=0;bottom=0;right=0;align=left;spacingLeft=6;overflow=hidden;whiteSpace=wrap;html=1;strokeColor=#E07A5F;rounded=1;labelBackgroundColor=none;fontColor=#393C56;" vertex="1" parent="5FP1IzFym2wmlCKe2uCG-33">
          <mxGeometry x="30" width="150" height="30" as="geometry">
            <mxRectangle width="150" height="30" as="alternateBounds" />
          </mxGeometry>
        </mxCell>
        <mxCell id="5FP1IzFym2wmlCKe2uCG-36" value="" style="shape=tableRow;horizontal=0;startSize=0;swimlaneHead=0;swimlaneBody=0;fillColor=none;collapsible=0;dropTarget=0;points=[[0,0.5],[1,0.5]];portConstraint=eastwest;top=0;left=0;right=0;bottom=0;strokeColor=#E07A5F;rounded=1;labelBackgroundColor=none;fontColor=#393C56;" vertex="1" parent="5FP1IzFym2wmlCKe2uCG-29">
          <mxGeometry y="100" width="180" height="30" as="geometry" />
        </mxCell>
        <mxCell id="5FP1IzFym2wmlCKe2uCG-37" value="" style="shape=partialRectangle;connectable=0;fillColor=none;top=0;left=0;bottom=0;right=0;editable=1;overflow=hidden;whiteSpace=wrap;html=1;strokeColor=#E07A5F;rounded=1;labelBackgroundColor=none;fontColor=#393C56;" vertex="1" parent="5FP1IzFym2wmlCKe2uCG-36">
          <mxGeometry width="30" height="30" as="geometry">
            <mxRectangle width="30" height="30" as="alternateBounds" />
          </mxGeometry>
        </mxCell>
        <mxCell id="5FP1IzFym2wmlCKe2uCG-38" value="surname" style="shape=partialRectangle;connectable=0;fillColor=none;top=0;left=0;bottom=0;right=0;align=left;spacingLeft=6;overflow=hidden;whiteSpace=wrap;html=1;strokeColor=#E07A5F;rounded=1;labelBackgroundColor=none;fontColor=#393C56;" vertex="1" parent="5FP1IzFym2wmlCKe2uCG-36">
          <mxGeometry x="30" width="150" height="30" as="geometry">
            <mxRectangle width="150" height="30" as="alternateBounds" />
          </mxGeometry>
        </mxCell>
        <mxCell id="5FP1IzFym2wmlCKe2uCG-39" value="" style="shape=tableRow;horizontal=0;startSize=0;swimlaneHead=0;swimlaneBody=0;fillColor=none;collapsible=0;dropTarget=0;points=[[0,0.5],[1,0.5]];portConstraint=eastwest;top=0;left=0;right=0;bottom=0;strokeColor=#E07A5F;rounded=1;labelBackgroundColor=none;fontColor=#393C56;" vertex="1" parent="5FP1IzFym2wmlCKe2uCG-29">
          <mxGeometry y="130" width="180" height="30" as="geometry" />
        </mxCell>
        <mxCell id="5FP1IzFym2wmlCKe2uCG-40" value="" style="shape=partialRectangle;connectable=0;fillColor=none;top=0;left=0;bottom=0;right=0;editable=1;overflow=hidden;whiteSpace=wrap;html=1;strokeColor=#E07A5F;rounded=1;labelBackgroundColor=none;fontColor=#393C56;" vertex="1" parent="5FP1IzFym2wmlCKe2uCG-39">
          <mxGeometry width="30" height="30" as="geometry">
            <mxRectangle width="30" height="30" as="alternateBounds" />
          </mxGeometry>
        </mxCell>
        <mxCell id="5FP1IzFym2wmlCKe2uCG-41" value="patronymic" style="shape=partialRectangle;connectable=0;fillColor=none;top=0;left=0;bottom=0;right=0;align=left;spacingLeft=6;overflow=hidden;whiteSpace=wrap;html=1;strokeColor=#E07A5F;rounded=1;labelBackgroundColor=none;fontColor=#393C56;" vertex="1" parent="5FP1IzFym2wmlCKe2uCG-39">
          <mxGeometry x="30" width="150" height="30" as="geometry">
            <mxRectangle width="150" height="30" as="alternateBounds" />
          </mxGeometry>
        </mxCell>
        <mxCell id="5FP1IzFym2wmlCKe2uCG-42" style="shape=tableRow;horizontal=0;startSize=0;swimlaneHead=0;swimlaneBody=0;fillColor=none;collapsible=0;dropTarget=0;points=[[0,0.5],[1,0.5]];portConstraint=eastwest;top=0;left=0;right=0;bottom=0;strokeColor=#E07A5F;rounded=1;labelBackgroundColor=none;fontColor=#393C56;" vertex="1" parent="5FP1IzFym2wmlCKe2uCG-29">
          <mxGeometry y="160" width="180" height="30" as="geometry" />
        </mxCell>
        <mxCell id="5FP1IzFym2wmlCKe2uCG-43" style="shape=partialRectangle;connectable=0;fillColor=none;top=0;left=0;bottom=0;right=0;editable=1;overflow=hidden;whiteSpace=wrap;html=1;strokeColor=#E07A5F;rounded=1;labelBackgroundColor=none;fontColor=#393C56;" vertex="1" parent="5FP1IzFym2wmlCKe2uCG-42">
          <mxGeometry width="30" height="30" as="geometry">
            <mxRectangle width="30" height="30" as="alternateBounds" />
          </mxGeometry>
        </mxCell>
        <mxCell id="5FP1IzFym2wmlCKe2uCG-44" value="phone" style="shape=partialRectangle;connectable=0;fillColor=none;top=0;left=0;bottom=0;right=0;align=left;spacingLeft=6;overflow=hidden;whiteSpace=wrap;html=1;strokeColor=#E07A5F;rounded=1;labelBackgroundColor=none;fontColor=#393C56;" vertex="1" parent="5FP1IzFym2wmlCKe2uCG-42">
          <mxGeometry x="30" width="150" height="30" as="geometry">
            <mxRectangle width="150" height="30" as="alternateBounds" />
          </mxGeometry>
        </mxCell>
        <mxCell id="5FP1IzFym2wmlCKe2uCG-45" style="shape=tableRow;horizontal=0;startSize=0;swimlaneHead=0;swimlaneBody=0;fillColor=none;collapsible=0;dropTarget=0;points=[[0,0.5],[1,0.5]];portConstraint=eastwest;top=0;left=0;right=0;bottom=0;strokeColor=#E07A5F;rounded=1;labelBackgroundColor=none;fontColor=#393C56;" vertex="1" parent="5FP1IzFym2wmlCKe2uCG-29">
          <mxGeometry y="190" width="180" height="30" as="geometry" />
        </mxCell>
        <mxCell id="5FP1IzFym2wmlCKe2uCG-46" style="shape=partialRectangle;connectable=0;fillColor=none;top=0;left=0;bottom=0;right=0;editable=1;overflow=hidden;whiteSpace=wrap;html=1;strokeColor=#E07A5F;rounded=1;labelBackgroundColor=none;fontColor=#393C56;" vertex="1" parent="5FP1IzFym2wmlCKe2uCG-45">
          <mxGeometry width="30" height="30" as="geometry">
            <mxRectangle width="30" height="30" as="alternateBounds" />
          </mxGeometry>
        </mxCell>
        <mxCell id="5FP1IzFym2wmlCKe2uCG-47" value="login" style="shape=partialRectangle;connectable=0;fillColor=none;top=0;left=0;bottom=0;right=0;align=left;spacingLeft=6;overflow=hidden;whiteSpace=wrap;html=1;strokeColor=#E07A5F;rounded=1;labelBackgroundColor=none;fontColor=#393C56;" vertex="1" parent="5FP1IzFym2wmlCKe2uCG-45">
          <mxGeometry x="30" width="150" height="30" as="geometry">
            <mxRectangle width="150" height="30" as="alternateBounds" />
          </mxGeometry>
        </mxCell>
        <mxCell id="5FP1IzFym2wmlCKe2uCG-48" style="shape=tableRow;horizontal=0;startSize=0;swimlaneHead=0;swimlaneBody=0;fillColor=none;collapsible=0;dropTarget=0;points=[[0,0.5],[1,0.5]];portConstraint=eastwest;top=0;left=0;right=0;bottom=0;strokeColor=#E07A5F;rounded=1;labelBackgroundColor=none;fontColor=#393C56;" vertex="1" parent="5FP1IzFym2wmlCKe2uCG-29">
          <mxGeometry y="220" width="180" height="30" as="geometry" />
        </mxCell>
        <mxCell id="5FP1IzFym2wmlCKe2uCG-49" style="shape=partialRectangle;connectable=0;fillColor=none;top=0;left=0;bottom=0;right=0;editable=1;overflow=hidden;whiteSpace=wrap;html=1;strokeColor=#E07A5F;rounded=1;labelBackgroundColor=none;fontColor=#393C56;" vertex="1" parent="5FP1IzFym2wmlCKe2uCG-48">
          <mxGeometry width="30" height="30" as="geometry">
            <mxRectangle width="30" height="30" as="alternateBounds" />
          </mxGeometry>
        </mxCell>
        <mxCell id="5FP1IzFym2wmlCKe2uCG-50" value="password" style="shape=partialRectangle;connectable=0;fillColor=none;top=0;left=0;bottom=0;right=0;align=left;spacingLeft=6;overflow=hidden;whiteSpace=wrap;html=1;strokeColor=#E07A5F;rounded=1;labelBackgroundColor=none;fontColor=#393C56;" vertex="1" parent="5FP1IzFym2wmlCKe2uCG-48">
          <mxGeometry x="30" width="150" height="30" as="geometry">
            <mxRectangle width="150" height="30" as="alternateBounds" />
          </mxGeometry>
        </mxCell>
        <mxCell id="5FP1IzFym2wmlCKe2uCG-51" style="shape=tableRow;horizontal=0;startSize=0;swimlaneHead=0;swimlaneBody=0;fillColor=none;collapsible=0;dropTarget=0;points=[[0,0.5],[1,0.5]];portConstraint=eastwest;top=0;left=0;right=0;bottom=0;strokeColor=#E07A5F;rounded=1;labelBackgroundColor=none;fontColor=#393C56;" vertex="1" parent="5FP1IzFym2wmlCKe2uCG-29">
          <mxGeometry y="250" width="180" height="30" as="geometry" />
        </mxCell>
        <mxCell id="5FP1IzFym2wmlCKe2uCG-52" value="FK" style="shape=partialRectangle;connectable=0;fillColor=none;top=0;left=0;bottom=0;right=0;editable=1;overflow=hidden;whiteSpace=wrap;html=1;strokeColor=#E07A5F;rounded=1;labelBackgroundColor=none;fontColor=#393C56;" vertex="1" parent="5FP1IzFym2wmlCKe2uCG-51">
          <mxGeometry width="30" height="30" as="geometry">
            <mxRectangle width="30" height="30" as="alternateBounds" />
          </mxGeometry>
        </mxCell>
        <mxCell id="5FP1IzFym2wmlCKe2uCG-53" value="role_id" style="shape=partialRectangle;connectable=0;fillColor=none;top=0;left=0;bottom=0;right=0;align=left;spacingLeft=6;overflow=hidden;whiteSpace=wrap;html=1;strokeColor=#E07A5F;rounded=1;labelBackgroundColor=none;fontColor=#393C56;" vertex="1" parent="5FP1IzFym2wmlCKe2uCG-51">
          <mxGeometry x="30" width="150" height="30" as="geometry">
            <mxRectangle width="150" height="30" as="alternateBounds" />
          </mxGeometry>
        </mxCell>
        <mxCell id="5FP1IzFym2wmlCKe2uCG-54" value="role" style="shape=table;startSize=30;container=1;collapsible=1;childLayout=tableLayout;fixedRows=1;rowLines=0;fontStyle=1;align=center;resizeLast=1;html=1;strokeColor=#E07A5F;rounded=1;labelBackgroundColor=none;fillColor=#F2CC8F;fontColor=#393C56;" vertex="1" parent="1">
          <mxGeometry x="60" y="40" width="180" height="130" as="geometry" />
        </mxCell>
        <mxCell id="5FP1IzFym2wmlCKe2uCG-55" value="" style="shape=tableRow;horizontal=0;startSize=0;swimlaneHead=0;swimlaneBody=0;fillColor=none;collapsible=0;dropTarget=0;points=[[0,0.5],[1,0.5]];portConstraint=eastwest;top=0;left=0;right=0;bottom=1;strokeColor=#E07A5F;rounded=1;labelBackgroundColor=none;fontColor=#393C56;" vertex="1" parent="5FP1IzFym2wmlCKe2uCG-54">
          <mxGeometry y="30" width="180" height="40" as="geometry" />
        </mxCell>
        <mxCell id="5FP1IzFym2wmlCKe2uCG-56" value="PK" style="shape=partialRectangle;connectable=0;fillColor=none;top=0;left=0;bottom=0;right=0;fontStyle=1;overflow=hidden;whiteSpace=wrap;html=1;strokeColor=#E07A5F;rounded=1;labelBackgroundColor=none;fontColor=#393C56;" vertex="1" parent="5FP1IzFym2wmlCKe2uCG-55">
          <mxGeometry width="30" height="40" as="geometry">
            <mxRectangle width="30" height="40" as="alternateBounds" />
          </mxGeometry>
        </mxCell>
        <mxCell id="5FP1IzFym2wmlCKe2uCG-57" value="id" style="shape=partialRectangle;connectable=0;fillColor=none;top=0;left=0;bottom=0;right=0;align=left;spacingLeft=6;fontStyle=5;overflow=hidden;whiteSpace=wrap;html=1;strokeColor=#E07A5F;rounded=1;labelBackgroundColor=none;fontColor=#393C56;" vertex="1" parent="5FP1IzFym2wmlCKe2uCG-55">
          <mxGeometry x="30" width="150" height="40" as="geometry">
            <mxRectangle width="150" height="40" as="alternateBounds" />
          </mxGeometry>
        </mxCell>
        <mxCell id="5FP1IzFym2wmlCKe2uCG-58" value="" style="shape=tableRow;horizontal=0;startSize=0;swimlaneHead=0;swimlaneBody=0;fillColor=none;collapsible=0;dropTarget=0;points=[[0,0.5],[1,0.5]];portConstraint=eastwest;top=0;left=0;right=0;bottom=0;strokeColor=#E07A5F;rounded=1;labelBackgroundColor=none;fontColor=#393C56;" vertex="1" parent="5FP1IzFym2wmlCKe2uCG-54">
          <mxGeometry y="70" width="180" height="30" as="geometry" />
        </mxCell>
        <mxCell id="5FP1IzFym2wmlCKe2uCG-59" value="" style="shape=partialRectangle;connectable=0;fillColor=none;top=0;left=0;bottom=0;right=0;editable=1;overflow=hidden;whiteSpace=wrap;html=1;strokeColor=#E07A5F;rounded=1;labelBackgroundColor=none;fontColor=#393C56;" vertex="1" parent="5FP1IzFym2wmlCKe2uCG-58">
          <mxGeometry width="30" height="30" as="geometry">
            <mxRectangle width="30" height="30" as="alternateBounds" />
          </mxGeometry>
        </mxCell>
        <mxCell id="5FP1IzFym2wmlCKe2uCG-60" value="name" style="shape=partialRectangle;connectable=0;fillColor=none;top=0;left=0;bottom=0;right=0;align=left;spacingLeft=6;overflow=hidden;whiteSpace=wrap;html=1;strokeColor=#E07A5F;rounded=1;labelBackgroundColor=none;fontColor=#393C56;" vertex="1" parent="5FP1IzFym2wmlCKe2uCG-58">
          <mxGeometry x="30" width="150" height="30" as="geometry">
            <mxRectangle width="150" height="30" as="alternateBounds" />
          </mxGeometry>
        </mxCell>
        <mxCell id="5FP1IzFym2wmlCKe2uCG-61" style="shape=tableRow;horizontal=0;startSize=0;swimlaneHead=0;swimlaneBody=0;fillColor=none;collapsible=0;dropTarget=0;points=[[0,0.5],[1,0.5]];portConstraint=eastwest;top=0;left=0;right=0;bottom=0;strokeColor=#E07A5F;rounded=1;labelBackgroundColor=none;fontColor=#393C56;" vertex="1" parent="5FP1IzFym2wmlCKe2uCG-54">
          <mxGeometry y="100" width="180" height="30" as="geometry" />
        </mxCell>
        <mxCell id="5FP1IzFym2wmlCKe2uCG-62" style="shape=partialRectangle;connectable=0;fillColor=none;top=0;left=0;bottom=0;right=0;editable=1;overflow=hidden;whiteSpace=wrap;html=1;strokeColor=#E07A5F;rounded=1;labelBackgroundColor=none;fontColor=#393C56;" vertex="1" parent="5FP1IzFym2wmlCKe2uCG-61">
          <mxGeometry width="30" height="30" as="geometry">
            <mxRectangle width="30" height="30" as="alternateBounds" />
          </mxGeometry>
        </mxCell>
        <mxCell id="5FP1IzFym2wmlCKe2uCG-63" value="code" style="shape=partialRectangle;connectable=0;fillColor=none;top=0;left=0;bottom=0;right=0;align=left;spacingLeft=6;overflow=hidden;whiteSpace=wrap;html=1;strokeColor=#E07A5F;rounded=1;labelBackgroundColor=none;fontColor=#393C56;" vertex="1" parent="5FP1IzFym2wmlCKe2uCG-61">
          <mxGeometry x="30" width="150" height="30" as="geometry">
            <mxRectangle width="150" height="30" as="alternateBounds" />
          </mxGeometry>
        </mxCell>
        <mxCell id="5FP1IzFym2wmlCKe2uCG-64" style="edgeStyle=orthogonalEdgeStyle;rounded=1;orthogonalLoop=1;jettySize=auto;html=1;startArrow=ERmandOne;startFill=0;endArrow=ERoneToMany;endFill=0;strokeColor=#E07A5F;labelBackgroundColor=none;fontColor=default;" edge="1" parent="1" source="5FP1IzFym2wmlCKe2uCG-55" target="5FP1IzFym2wmlCKe2uCG-51">
          <mxGeometry relative="1" as="geometry">
            <mxPoint x="-370" y="535" as="sourcePoint" />
            <mxPoint x="-300" y="535" as="targetPoint" />
            <Array as="points">
              <mxPoint x="40" y="90" />
              <mxPoint x="40" y="445" />
            </Array>
          </mxGeometry>
        </mxCell>
        <mxCell id="5FP1IzFym2wmlCKe2uCG-65" style="edgeStyle=orthogonalEdgeStyle;rounded=1;orthogonalLoop=1;jettySize=auto;html=1;startArrow=ERmandOne;startFill=0;endArrow=ERoneToMany;endFill=0;strokeColor=#E07A5F;labelBackgroundColor=none;fontColor=default;" edge="1" parent="1" source="5FP1IzFym2wmlCKe2uCG-30" target="5FP1IzFym2wmlCKe2uCG-26">
          <mxGeometry relative="1" as="geometry">
            <mxPoint x="230" y="390" as="sourcePoint" />
            <mxPoint x="280" y="455" as="targetPoint" />
          </mxGeometry>
        </mxCell>
        <mxCell id="5FP1IzFym2wmlCKe2uCG-66" value="service_order" style="shape=table;startSize=30;container=1;collapsible=1;childLayout=tableLayout;fixedRows=1;rowLines=0;fontStyle=1;align=center;resizeLast=1;html=1;strokeColor=#E07A5F;rounded=1;labelBackgroundColor=none;fillColor=#F2CC8F;fontColor=#393C56;" vertex="1" parent="1">
          <mxGeometry x="540" y="190" width="180" height="160" as="geometry" />
        </mxCell>
        <mxCell id="5FP1IzFym2wmlCKe2uCG-67" value="" style="shape=tableRow;horizontal=0;startSize=0;swimlaneHead=0;swimlaneBody=0;fillColor=none;collapsible=0;dropTarget=0;points=[[0,0.5],[1,0.5]];portConstraint=eastwest;top=0;left=0;right=0;bottom=1;strokeColor=#E07A5F;rounded=1;labelBackgroundColor=none;fontColor=#393C56;" vertex="1" parent="5FP1IzFym2wmlCKe2uCG-66">
          <mxGeometry y="30" width="180" height="40" as="geometry" />
        </mxCell>
        <mxCell id="5FP1IzFym2wmlCKe2uCG-68" value="PK" style="shape=partialRectangle;connectable=0;fillColor=none;top=0;left=0;bottom=0;right=0;fontStyle=1;overflow=hidden;whiteSpace=wrap;html=1;strokeColor=#E07A5F;rounded=1;labelBackgroundColor=none;fontColor=#393C56;" vertex="1" parent="5FP1IzFym2wmlCKe2uCG-67">
          <mxGeometry width="30" height="40" as="geometry">
            <mxRectangle width="30" height="40" as="alternateBounds" />
          </mxGeometry>
        </mxCell>
        <mxCell id="5FP1IzFym2wmlCKe2uCG-69" value="id" style="shape=partialRectangle;connectable=0;fillColor=none;top=0;left=0;bottom=0;right=0;align=left;spacingLeft=6;fontStyle=5;overflow=hidden;whiteSpace=wrap;html=1;strokeColor=#E07A5F;rounded=1;labelBackgroundColor=none;fontColor=#393C56;" vertex="1" parent="5FP1IzFym2wmlCKe2uCG-67">
          <mxGeometry x="30" width="150" height="40" as="geometry">
            <mxRectangle width="150" height="40" as="alternateBounds" />
          </mxGeometry>
        </mxCell>
        <mxCell id="5FP1IzFym2wmlCKe2uCG-70" value="" style="shape=tableRow;horizontal=0;startSize=0;swimlaneHead=0;swimlaneBody=0;fillColor=none;collapsible=0;dropTarget=0;points=[[0,0.5],[1,0.5]];portConstraint=eastwest;top=0;left=0;right=0;bottom=0;strokeColor=#E07A5F;rounded=1;labelBackgroundColor=none;fontColor=#393C56;" vertex="1" parent="5FP1IzFym2wmlCKe2uCG-66">
          <mxGeometry y="70" width="180" height="30" as="geometry" />
        </mxCell>
        <mxCell id="5FP1IzFym2wmlCKe2uCG-71" value="" style="shape=partialRectangle;connectable=0;fillColor=none;top=0;left=0;bottom=0;right=0;editable=1;overflow=hidden;whiteSpace=wrap;html=1;strokeColor=#E07A5F;rounded=1;labelBackgroundColor=none;fontColor=#393C56;" vertex="1" parent="5FP1IzFym2wmlCKe2uCG-70">
          <mxGeometry width="30" height="30" as="geometry">
            <mxRectangle width="30" height="30" as="alternateBounds" />
          </mxGeometry>
        </mxCell>
        <mxCell id="5FP1IzFym2wmlCKe2uCG-72" value="is_executor" style="shape=partialRectangle;connectable=0;fillColor=none;top=0;left=0;bottom=0;right=0;align=left;spacingLeft=6;overflow=hidden;whiteSpace=wrap;html=1;strokeColor=#E07A5F;rounded=1;labelBackgroundColor=none;fontColor=#393C56;" vertex="1" parent="5FP1IzFym2wmlCKe2uCG-70">
          <mxGeometry x="30" width="150" height="30" as="geometry">
            <mxRectangle width="150" height="30" as="alternateBounds" />
          </mxGeometry>
        </mxCell>
        <mxCell id="5FP1IzFym2wmlCKe2uCG-73" value="" style="shape=tableRow;horizontal=0;startSize=0;swimlaneHead=0;swimlaneBody=0;fillColor=none;collapsible=0;dropTarget=0;points=[[0,0.5],[1,0.5]];portConstraint=eastwest;top=0;left=0;right=0;bottom=0;strokeColor=#E07A5F;rounded=1;labelBackgroundColor=none;fontColor=#393C56;" vertex="1" parent="5FP1IzFym2wmlCKe2uCG-66">
          <mxGeometry y="100" width="180" height="30" as="geometry" />
        </mxCell>
        <mxCell id="5FP1IzFym2wmlCKe2uCG-74" value="FK" style="shape=partialRectangle;connectable=0;fillColor=none;top=0;left=0;bottom=0;right=0;editable=1;overflow=hidden;whiteSpace=wrap;html=1;strokeColor=#E07A5F;rounded=1;labelBackgroundColor=none;fontColor=#393C56;" vertex="1" parent="5FP1IzFym2wmlCKe2uCG-73">
          <mxGeometry width="30" height="30" as="geometry">
            <mxRectangle width="30" height="30" as="alternateBounds" />
          </mxGeometry>
        </mxCell>
        <mxCell id="5FP1IzFym2wmlCKe2uCG-75" value="&lt;span style=&quot;text-align: center; text-wrap: nowrap;&quot;&gt;service_requests_id&lt;/span&gt;" style="shape=partialRectangle;connectable=0;fillColor=none;top=0;left=0;bottom=0;right=0;align=left;spacingLeft=6;overflow=hidden;whiteSpace=wrap;html=1;strokeColor=#E07A5F;rounded=1;labelBackgroundColor=none;fontColor=#393C56;" vertex="1" parent="5FP1IzFym2wmlCKe2uCG-73">
          <mxGeometry x="30" width="150" height="30" as="geometry">
            <mxRectangle width="150" height="30" as="alternateBounds" />
          </mxGeometry>
        </mxCell>
        <mxCell id="5FP1IzFym2wmlCKe2uCG-76" value="" style="shape=tableRow;horizontal=0;startSize=0;swimlaneHead=0;swimlaneBody=0;fillColor=none;collapsible=0;dropTarget=0;points=[[0,0.5],[1,0.5]];portConstraint=eastwest;top=0;left=0;right=0;bottom=0;strokeColor=#E07A5F;rounded=1;labelBackgroundColor=none;fontColor=#393C56;" vertex="1" parent="5FP1IzFym2wmlCKe2uCG-66">
          <mxGeometry y="130" width="180" height="30" as="geometry" />
        </mxCell>
        <mxCell id="5FP1IzFym2wmlCKe2uCG-77" value="FK" style="shape=partialRectangle;connectable=0;fillColor=none;top=0;left=0;bottom=0;right=0;editable=1;overflow=hidden;whiteSpace=wrap;html=1;strokeColor=#E07A5F;rounded=1;labelBackgroundColor=none;fontColor=#393C56;" vertex="1" parent="5FP1IzFym2wmlCKe2uCG-76">
          <mxGeometry width="30" height="30" as="geometry">
            <mxRectangle width="30" height="30" as="alternateBounds" />
          </mxGeometry>
        </mxCell>
        <mxCell id="5FP1IzFym2wmlCKe2uCG-78" value="employee_id" style="shape=partialRectangle;connectable=0;fillColor=none;top=0;left=0;bottom=0;right=0;align=left;spacingLeft=6;overflow=hidden;whiteSpace=wrap;html=1;strokeColor=#E07A5F;rounded=1;labelBackgroundColor=none;fontColor=#393C56;" vertex="1" parent="5FP1IzFym2wmlCKe2uCG-76">
          <mxGeometry x="30" width="150" height="30" as="geometry">
            <mxRectangle width="150" height="30" as="alternateBounds" />
          </mxGeometry>
        </mxCell>
        <mxCell id="5FP1IzFym2wmlCKe2uCG-79" value="service_request_status" style="shape=table;startSize=30;container=1;collapsible=1;childLayout=tableLayout;fixedRows=1;rowLines=0;fontStyle=1;align=center;resizeLast=1;html=1;strokeColor=#E07A5F;rounded=1;labelBackgroundColor=none;fillColor=#F2CC8F;fontColor=#393C56;" vertex="1" parent="1">
          <mxGeometry x="540" y="410" width="180" height="100" as="geometry" />
        </mxCell>
        <mxCell id="5FP1IzFym2wmlCKe2uCG-80" value="" style="shape=tableRow;horizontal=0;startSize=0;swimlaneHead=0;swimlaneBody=0;fillColor=none;collapsible=0;dropTarget=0;points=[[0,0.5],[1,0.5]];portConstraint=eastwest;top=0;left=0;right=0;bottom=1;strokeColor=#E07A5F;rounded=1;labelBackgroundColor=none;fontColor=#393C56;" vertex="1" parent="5FP1IzFym2wmlCKe2uCG-79">
          <mxGeometry y="30" width="180" height="40" as="geometry" />
        </mxCell>
        <mxCell id="5FP1IzFym2wmlCKe2uCG-81" value="PK" style="shape=partialRectangle;connectable=0;fillColor=none;top=0;left=0;bottom=0;right=0;fontStyle=1;overflow=hidden;whiteSpace=wrap;html=1;strokeColor=#E07A5F;rounded=1;labelBackgroundColor=none;fontColor=#393C56;" vertex="1" parent="5FP1IzFym2wmlCKe2uCG-80">
          <mxGeometry width="30" height="40" as="geometry">
            <mxRectangle width="30" height="40" as="alternateBounds" />
          </mxGeometry>
        </mxCell>
        <mxCell id="5FP1IzFym2wmlCKe2uCG-82" value="id" style="shape=partialRectangle;connectable=0;fillColor=none;top=0;left=0;bottom=0;right=0;align=left;spacingLeft=6;fontStyle=5;overflow=hidden;whiteSpace=wrap;html=1;strokeColor=#E07A5F;rounded=1;labelBackgroundColor=none;fontColor=#393C56;" vertex="1" parent="5FP1IzFym2wmlCKe2uCG-80">
          <mxGeometry x="30" width="150" height="40" as="geometry">
            <mxRectangle width="150" height="40" as="alternateBounds" />
          </mxGeometry>
        </mxCell>
        <mxCell id="5FP1IzFym2wmlCKe2uCG-83" value="" style="shape=tableRow;horizontal=0;startSize=0;swimlaneHead=0;swimlaneBody=0;fillColor=none;collapsible=0;dropTarget=0;points=[[0,0.5],[1,0.5]];portConstraint=eastwest;top=0;left=0;right=0;bottom=0;strokeColor=#E07A5F;rounded=1;labelBackgroundColor=none;fontColor=#393C56;" vertex="1" parent="5FP1IzFym2wmlCKe2uCG-79">
          <mxGeometry y="70" width="180" height="30" as="geometry" />
        </mxCell>
        <mxCell id="5FP1IzFym2wmlCKe2uCG-84" value="" style="shape=partialRectangle;connectable=0;fillColor=none;top=0;left=0;bottom=0;right=0;editable=1;overflow=hidden;whiteSpace=wrap;html=1;strokeColor=#E07A5F;rounded=1;labelBackgroundColor=none;fontColor=#393C56;" vertex="1" parent="5FP1IzFym2wmlCKe2uCG-83">
          <mxGeometry width="30" height="30" as="geometry">
            <mxRectangle width="30" height="30" as="alternateBounds" />
          </mxGeometry>
        </mxCell>
        <mxCell id="5FP1IzFym2wmlCKe2uCG-85" value="name" style="shape=partialRectangle;connectable=0;fillColor=none;top=0;left=0;bottom=0;right=0;align=left;spacingLeft=6;overflow=hidden;whiteSpace=wrap;html=1;strokeColor=#E07A5F;rounded=1;labelBackgroundColor=none;fontColor=#393C56;" vertex="1" parent="5FP1IzFym2wmlCKe2uCG-83">
          <mxGeometry x="30" width="150" height="30" as="geometry">
            <mxRectangle width="150" height="30" as="alternateBounds" />
          </mxGeometry>
        </mxCell>
        <mxCell id="5FP1IzFym2wmlCKe2uCG-86" style="edgeStyle=orthogonalEdgeStyle;rounded=1;orthogonalLoop=1;jettySize=auto;html=1;startArrow=ERmandOne;startFill=0;endArrow=ERoneToMany;endFill=0;strokeColor=#E07A5F;labelBackgroundColor=none;fontColor=default;" edge="1" parent="1" source="5FP1IzFym2wmlCKe2uCG-80" target="5FP1IzFym2wmlCKe2uCG-23">
          <mxGeometry relative="1" as="geometry">
            <mxPoint x="460" y="240" as="sourcePoint" />
            <mxPoint x="510" y="455" as="targetPoint" />
          </mxGeometry>
        </mxCell>
        <mxCell id="5FP1IzFym2wmlCKe2uCG-87" style="edgeStyle=orthogonalEdgeStyle;rounded=1;orthogonalLoop=1;jettySize=auto;html=1;startArrow=ERmandOne;startFill=0;endArrow=ERoneToMany;endFill=0;strokeColor=#E07A5F;labelBackgroundColor=none;fontColor=default;" edge="1" parent="1" source="5FP1IzFym2wmlCKe2uCG-30" target="5FP1IzFym2wmlCKe2uCG-76">
          <mxGeometry relative="1" as="geometry">
            <mxPoint x="460" y="240" as="sourcePoint" />
            <mxPoint x="510" y="455" as="targetPoint" />
            <Array as="points">
              <mxPoint x="250" y="230" />
              <mxPoint x="250" y="40" />
              <mxPoint x="750" y="40" />
              <mxPoint x="750" y="330" />
            </Array>
          </mxGeometry>
        </mxCell>
        <mxCell id="5FP1IzFym2wmlCKe2uCG-89" style="edgeStyle=orthogonalEdgeStyle;rounded=1;orthogonalLoop=1;jettySize=auto;html=1;startArrow=ERmandOne;startFill=0;endArrow=ERoneToMany;endFill=0;strokeColor=#E07A5F;labelBackgroundColor=none;fontColor=default;" edge="1" parent="1" source="5FP1IzFym2wmlCKe2uCG-5" target="5FP1IzFym2wmlCKe2uCG-73">
          <mxGeometry relative="1" as="geometry">
            <mxPoint x="460" y="240" as="sourcePoint" />
            <mxPoint x="510" y="455" as="targetPoint" />
          </mxGeometry>
        </mxCell>
        <mxCell id="5FP1IzFym2wmlCKe2uCG-90" value="comment" style="shape=table;startSize=30;container=1;collapsible=1;childLayout=tableLayout;fixedRows=1;rowLines=0;fontStyle=1;align=center;resizeLast=1;html=1;strokeColor=#E07A5F;rounded=1;labelBackgroundColor=none;fillColor=#F2CC8F;fontColor=#393C56;" vertex="1" parent="1">
          <mxGeometry x="320" y="60" width="180" height="160" as="geometry" />
        </mxCell>
        <mxCell id="5FP1IzFym2wmlCKe2uCG-91" value="" style="shape=tableRow;horizontal=0;startSize=0;swimlaneHead=0;swimlaneBody=0;fillColor=none;collapsible=0;dropTarget=0;points=[[0,0.5],[1,0.5]];portConstraint=eastwest;top=0;left=0;right=0;bottom=1;strokeColor=#E07A5F;rounded=1;labelBackgroundColor=none;fontColor=#393C56;" vertex="1" parent="5FP1IzFym2wmlCKe2uCG-90">
          <mxGeometry y="30" width="180" height="40" as="geometry" />
        </mxCell>
        <mxCell id="5FP1IzFym2wmlCKe2uCG-92" value="PK" style="shape=partialRectangle;connectable=0;fillColor=none;top=0;left=0;bottom=0;right=0;fontStyle=1;overflow=hidden;whiteSpace=wrap;html=1;strokeColor=#E07A5F;rounded=1;labelBackgroundColor=none;fontColor=#393C56;" vertex="1" parent="5FP1IzFym2wmlCKe2uCG-91">
          <mxGeometry width="30" height="40" as="geometry">
            <mxRectangle width="30" height="40" as="alternateBounds" />
          </mxGeometry>
        </mxCell>
        <mxCell id="5FP1IzFym2wmlCKe2uCG-93" value="id" style="shape=partialRectangle;connectable=0;fillColor=none;top=0;left=0;bottom=0;right=0;align=left;spacingLeft=6;fontStyle=5;overflow=hidden;whiteSpace=wrap;html=1;strokeColor=#E07A5F;rounded=1;labelBackgroundColor=none;fontColor=#393C56;" vertex="1" parent="5FP1IzFym2wmlCKe2uCG-91">
          <mxGeometry x="30" width="150" height="40" as="geometry">
            <mxRectangle width="150" height="40" as="alternateBounds" />
          </mxGeometry>
        </mxCell>
        <mxCell id="5FP1IzFym2wmlCKe2uCG-94" value="" style="shape=tableRow;horizontal=0;startSize=0;swimlaneHead=0;swimlaneBody=0;fillColor=none;collapsible=0;dropTarget=0;points=[[0,0.5],[1,0.5]];portConstraint=eastwest;top=0;left=0;right=0;bottom=0;strokeColor=#E07A5F;rounded=1;labelBackgroundColor=none;fontColor=#393C56;" vertex="1" parent="5FP1IzFym2wmlCKe2uCG-90">
          <mxGeometry y="70" width="180" height="30" as="geometry" />
        </mxCell>
        <mxCell id="5FP1IzFym2wmlCKe2uCG-95" value="" style="shape=partialRectangle;connectable=0;fillColor=none;top=0;left=0;bottom=0;right=0;editable=1;overflow=hidden;whiteSpace=wrap;html=1;strokeColor=#E07A5F;rounded=1;labelBackgroundColor=none;fontColor=#393C56;" vertex="1" parent="5FP1IzFym2wmlCKe2uCG-94">
          <mxGeometry width="30" height="30" as="geometry">
            <mxRectangle width="30" height="30" as="alternateBounds" />
          </mxGeometry>
        </mxCell>
        <mxCell id="5FP1IzFym2wmlCKe2uCG-96" value="message" style="shape=partialRectangle;connectable=0;fillColor=none;top=0;left=0;bottom=0;right=0;align=left;spacingLeft=6;overflow=hidden;whiteSpace=wrap;html=1;strokeColor=#E07A5F;rounded=1;labelBackgroundColor=none;fontColor=#393C56;" vertex="1" parent="5FP1IzFym2wmlCKe2uCG-94">
          <mxGeometry x="30" width="150" height="30" as="geometry">
            <mxRectangle width="150" height="30" as="alternateBounds" />
          </mxGeometry>
        </mxCell>
        <mxCell id="5FP1IzFym2wmlCKe2uCG-97" value="" style="shape=tableRow;horizontal=0;startSize=0;swimlaneHead=0;swimlaneBody=0;fillColor=none;collapsible=0;dropTarget=0;points=[[0,0.5],[1,0.5]];portConstraint=eastwest;top=0;left=0;right=0;bottom=0;strokeColor=#E07A5F;rounded=1;labelBackgroundColor=none;fontColor=#393C56;" vertex="1" parent="5FP1IzFym2wmlCKe2uCG-90">
          <mxGeometry y="100" width="180" height="30" as="geometry" />
        </mxCell>
        <mxCell id="5FP1IzFym2wmlCKe2uCG-98" value="FK" style="shape=partialRectangle;connectable=0;fillColor=none;top=0;left=0;bottom=0;right=0;editable=1;overflow=hidden;whiteSpace=wrap;html=1;strokeColor=#E07A5F;rounded=1;labelBackgroundColor=none;fontColor=#393C56;" vertex="1" parent="5FP1IzFym2wmlCKe2uCG-97">
          <mxGeometry width="30" height="30" as="geometry">
            <mxRectangle width="30" height="30" as="alternateBounds" />
          </mxGeometry>
        </mxCell>
        <mxCell id="5FP1IzFym2wmlCKe2uCG-99" value="&lt;span style=&quot;text-align: center; text-wrap: nowrap;&quot;&gt;service_request_id&lt;/span&gt;" style="shape=partialRectangle;connectable=0;fillColor=none;top=0;left=0;bottom=0;right=0;align=left;spacingLeft=6;overflow=hidden;whiteSpace=wrap;html=1;strokeColor=#E07A5F;rounded=1;labelBackgroundColor=none;fontColor=#393C56;" vertex="1" parent="5FP1IzFym2wmlCKe2uCG-97">
          <mxGeometry x="30" width="150" height="30" as="geometry">
            <mxRectangle width="150" height="30" as="alternateBounds" />
          </mxGeometry>
        </mxCell>
        <mxCell id="5FP1IzFym2wmlCKe2uCG-100" value="" style="shape=tableRow;horizontal=0;startSize=0;swimlaneHead=0;swimlaneBody=0;fillColor=none;collapsible=0;dropTarget=0;points=[[0,0.5],[1,0.5]];portConstraint=eastwest;top=0;left=0;right=0;bottom=0;strokeColor=#E07A5F;rounded=1;labelBackgroundColor=none;fontColor=#393C56;" vertex="1" parent="5FP1IzFym2wmlCKe2uCG-90">
          <mxGeometry y="130" width="180" height="30" as="geometry" />
        </mxCell>
        <mxCell id="5FP1IzFym2wmlCKe2uCG-101" value="FK" style="shape=partialRectangle;connectable=0;fillColor=none;top=0;left=0;bottom=0;right=0;editable=1;overflow=hidden;whiteSpace=wrap;html=1;strokeColor=#E07A5F;rounded=1;labelBackgroundColor=none;fontColor=#393C56;" vertex="1" parent="5FP1IzFym2wmlCKe2uCG-100">
          <mxGeometry width="30" height="30" as="geometry">
            <mxRectangle width="30" height="30" as="alternateBounds" />
          </mxGeometry>
        </mxCell>
        <mxCell id="5FP1IzFym2wmlCKe2uCG-102" value="user_id" style="shape=partialRectangle;connectable=0;fillColor=none;top=0;left=0;bottom=0;right=0;align=left;spacingLeft=6;overflow=hidden;whiteSpace=wrap;html=1;strokeColor=#E07A5F;rounded=1;labelBackgroundColor=none;fontColor=#393C56;" vertex="1" parent="5FP1IzFym2wmlCKe2uCG-100">
          <mxGeometry x="30" width="150" height="30" as="geometry">
            <mxRectangle width="150" height="30" as="alternateBounds" />
          </mxGeometry>
        </mxCell>
        <mxCell id="5FP1IzFym2wmlCKe2uCG-103" style="edgeStyle=orthogonalEdgeStyle;rounded=1;orthogonalLoop=1;jettySize=auto;html=1;startArrow=ERmandOne;startFill=0;endArrow=ERoneToMany;endFill=0;strokeColor=#E07A5F;labelBackgroundColor=none;fontColor=default;" edge="1" parent="1" source="5FP1IzFym2wmlCKe2uCG-5" target="5FP1IzFym2wmlCKe2uCG-97">
          <mxGeometry relative="1" as="geometry">
            <mxPoint x="460" y="240" as="sourcePoint" />
            <mxPoint x="510" y="455" as="targetPoint" />
          </mxGeometry>
        </mxCell>
        <mxCell id="5FP1IzFym2wmlCKe2uCG-104" style="edgeStyle=orthogonalEdgeStyle;rounded=1;orthogonalLoop=1;jettySize=auto;html=1;startArrow=ERmandOne;startFill=0;endArrow=ERoneToMany;endFill=0;strokeColor=#E07A5F;labelBackgroundColor=none;fontColor=default;" edge="1" parent="1" source="5FP1IzFym2wmlCKe2uCG-30" target="5FP1IzFym2wmlCKe2uCG-100">
          <mxGeometry relative="1" as="geometry">
            <mxPoint x="250" y="240" as="sourcePoint" />
            <mxPoint x="330" y="545" as="targetPoint" />
          </mxGeometry>
        </mxCell>
        <mxCell id="5FP1IzFym2wmlCKe2uCG-105" value="service_order_spare" style="shape=table;startSize=30;container=1;collapsible=1;childLayout=tableLayout;fixedRows=1;rowLines=0;fontStyle=1;align=center;resizeLast=1;html=1;strokeColor=#E07A5F;rounded=1;labelBackgroundColor=none;fillColor=#F2CC8F;fontColor=#393C56;" vertex="1" parent="1">
          <mxGeometry x="790" y="255" width="180" height="130" as="geometry" />
        </mxCell>
        <mxCell id="5FP1IzFym2wmlCKe2uCG-106" value="" style="shape=tableRow;horizontal=0;startSize=0;swimlaneHead=0;swimlaneBody=0;fillColor=none;collapsible=0;dropTarget=0;points=[[0,0.5],[1,0.5]];portConstraint=eastwest;top=0;left=0;right=0;bottom=1;strokeColor=#E07A5F;rounded=1;labelBackgroundColor=none;fontColor=#393C56;" vertex="1" parent="5FP1IzFym2wmlCKe2uCG-105">
          <mxGeometry y="30" width="180" height="40" as="geometry" />
        </mxCell>
        <mxCell id="5FP1IzFym2wmlCKe2uCG-107" value="PK" style="shape=partialRectangle;connectable=0;fillColor=none;top=0;left=0;bottom=0;right=0;fontStyle=1;overflow=hidden;whiteSpace=wrap;html=1;strokeColor=#E07A5F;rounded=1;labelBackgroundColor=none;fontColor=#393C56;" vertex="1" parent="5FP1IzFym2wmlCKe2uCG-106">
          <mxGeometry width="30" height="40" as="geometry">
            <mxRectangle width="30" height="40" as="alternateBounds" />
          </mxGeometry>
        </mxCell>
        <mxCell id="5FP1IzFym2wmlCKe2uCG-108" value="id" style="shape=partialRectangle;connectable=0;fillColor=none;top=0;left=0;bottom=0;right=0;align=left;spacingLeft=6;fontStyle=5;overflow=hidden;whiteSpace=wrap;html=1;strokeColor=#E07A5F;rounded=1;labelBackgroundColor=none;fontColor=#393C56;" vertex="1" parent="5FP1IzFym2wmlCKe2uCG-106">
          <mxGeometry x="30" width="150" height="40" as="geometry">
            <mxRectangle width="150" height="40" as="alternateBounds" />
          </mxGeometry>
        </mxCell>
        <mxCell id="5FP1IzFym2wmlCKe2uCG-109" value="" style="shape=tableRow;horizontal=0;startSize=0;swimlaneHead=0;swimlaneBody=0;fillColor=none;collapsible=0;dropTarget=0;points=[[0,0.5],[1,0.5]];portConstraint=eastwest;top=0;left=0;right=0;bottom=0;strokeColor=#E07A5F;rounded=1;labelBackgroundColor=none;fontColor=#393C56;" vertex="1" parent="5FP1IzFym2wmlCKe2uCG-105">
          <mxGeometry y="70" width="180" height="30" as="geometry" />
        </mxCell>
        <mxCell id="5FP1IzFym2wmlCKe2uCG-110" value="FK" style="shape=partialRectangle;connectable=0;fillColor=none;top=0;left=0;bottom=0;right=0;editable=1;overflow=hidden;whiteSpace=wrap;html=1;strokeColor=#E07A5F;rounded=1;labelBackgroundColor=none;fontColor=#393C56;" vertex="1" parent="5FP1IzFym2wmlCKe2uCG-109">
          <mxGeometry width="30" height="30" as="geometry">
            <mxRectangle width="30" height="30" as="alternateBounds" />
          </mxGeometry>
        </mxCell>
        <mxCell id="5FP1IzFym2wmlCKe2uCG-111" value="&lt;span style=&quot;text-align: center; text-wrap: nowrap;&quot;&gt;service_order_id&lt;/span&gt;" style="shape=partialRectangle;connectable=0;fillColor=none;top=0;left=0;bottom=0;right=0;align=left;spacingLeft=6;overflow=hidden;whiteSpace=wrap;html=1;strokeColor=#E07A5F;rounded=1;labelBackgroundColor=none;fontColor=#393C56;" vertex="1" parent="5FP1IzFym2wmlCKe2uCG-109">
          <mxGeometry x="30" width="150" height="30" as="geometry">
            <mxRectangle width="150" height="30" as="alternateBounds" />
          </mxGeometry>
        </mxCell>
        <mxCell id="5FP1IzFym2wmlCKe2uCG-114" style="shape=tableRow;horizontal=0;startSize=0;swimlaneHead=0;swimlaneBody=0;fillColor=none;collapsible=0;dropTarget=0;points=[[0,0.5],[1,0.5]];portConstraint=eastwest;top=0;left=0;right=0;bottom=0;strokeColor=#E07A5F;rounded=1;labelBackgroundColor=none;fontColor=#393C56;" vertex="1" parent="5FP1IzFym2wmlCKe2uCG-105">
          <mxGeometry y="100" width="180" height="30" as="geometry" />
        </mxCell>
        <mxCell id="5FP1IzFym2wmlCKe2uCG-115" value="FK" style="shape=partialRectangle;connectable=0;fillColor=none;top=0;left=0;bottom=0;right=0;editable=1;overflow=hidden;whiteSpace=wrap;html=1;strokeColor=#E07A5F;rounded=1;labelBackgroundColor=none;fontColor=#393C56;" vertex="1" parent="5FP1IzFym2wmlCKe2uCG-114">
          <mxGeometry width="30" height="30" as="geometry">
            <mxRectangle width="30" height="30" as="alternateBounds" />
          </mxGeometry>
        </mxCell>
        <mxCell id="5FP1IzFym2wmlCKe2uCG-116" value="spare_id" style="shape=partialRectangle;connectable=0;fillColor=none;top=0;left=0;bottom=0;right=0;align=left;spacingLeft=6;overflow=hidden;whiteSpace=wrap;html=1;strokeColor=#E07A5F;rounded=1;labelBackgroundColor=none;fontColor=#393C56;" vertex="1" parent="5FP1IzFym2wmlCKe2uCG-114">
          <mxGeometry x="30" width="150" height="30" as="geometry">
            <mxRectangle width="150" height="30" as="alternateBounds" />
          </mxGeometry>
        </mxCell>
        <mxCell id="5FP1IzFym2wmlCKe2uCG-113" style="edgeStyle=orthogonalEdgeStyle;rounded=1;orthogonalLoop=1;jettySize=auto;html=1;startArrow=ERmandOne;startFill=0;endArrow=ERoneToMany;endFill=0;strokeColor=#E07A5F;labelBackgroundColor=none;fontColor=default;" edge="1" parent="1" source="5FP1IzFym2wmlCKe2uCG-67" target="5FP1IzFym2wmlCKe2uCG-109">
          <mxGeometry relative="1" as="geometry">
            <mxPoint x="250" y="240" as="sourcePoint" />
            <mxPoint x="770" y="320" as="targetPoint" />
            <Array as="points">
              <mxPoint x="760" y="240" />
              <mxPoint x="760" y="340" />
            </Array>
          </mxGeometry>
        </mxCell>
        <mxCell id="5FP1IzFym2wmlCKe2uCG-120" value="spare" style="shape=table;startSize=30;container=1;collapsible=1;childLayout=tableLayout;fixedRows=1;rowLines=0;fontStyle=1;align=center;resizeLast=1;html=1;strokeColor=#E07A5F;rounded=1;labelBackgroundColor=none;fillColor=#F2CC8F;fontColor=#393C56;" vertex="1" parent="1">
          <mxGeometry x="790" y="420" width="180" height="130" as="geometry" />
        </mxCell>
        <mxCell id="5FP1IzFym2wmlCKe2uCG-121" value="" style="shape=tableRow;horizontal=0;startSize=0;swimlaneHead=0;swimlaneBody=0;fillColor=none;collapsible=0;dropTarget=0;points=[[0,0.5],[1,0.5]];portConstraint=eastwest;top=0;left=0;right=0;bottom=1;strokeColor=#E07A5F;rounded=1;labelBackgroundColor=none;fontColor=#393C56;" vertex="1" parent="5FP1IzFym2wmlCKe2uCG-120">
          <mxGeometry y="30" width="180" height="40" as="geometry" />
        </mxCell>
        <mxCell id="5FP1IzFym2wmlCKe2uCG-122" value="PK" style="shape=partialRectangle;connectable=0;fillColor=none;top=0;left=0;bottom=0;right=0;fontStyle=1;overflow=hidden;whiteSpace=wrap;html=1;strokeColor=#E07A5F;rounded=1;labelBackgroundColor=none;fontColor=#393C56;" vertex="1" parent="5FP1IzFym2wmlCKe2uCG-121">
          <mxGeometry width="30" height="40" as="geometry">
            <mxRectangle width="30" height="40" as="alternateBounds" />
          </mxGeometry>
        </mxCell>
        <mxCell id="5FP1IzFym2wmlCKe2uCG-123" value="id" style="shape=partialRectangle;connectable=0;fillColor=none;top=0;left=0;bottom=0;right=0;align=left;spacingLeft=6;fontStyle=5;overflow=hidden;whiteSpace=wrap;html=1;strokeColor=#E07A5F;rounded=1;labelBackgroundColor=none;fontColor=#393C56;" vertex="1" parent="5FP1IzFym2wmlCKe2uCG-121">
          <mxGeometry x="30" width="150" height="40" as="geometry">
            <mxRectangle width="150" height="40" as="alternateBounds" />
          </mxGeometry>
        </mxCell>
        <mxCell id="5FP1IzFym2wmlCKe2uCG-124" value="" style="shape=tableRow;horizontal=0;startSize=0;swimlaneHead=0;swimlaneBody=0;fillColor=none;collapsible=0;dropTarget=0;points=[[0,0.5],[1,0.5]];portConstraint=eastwest;top=0;left=0;right=0;bottom=0;strokeColor=#E07A5F;rounded=1;labelBackgroundColor=none;fontColor=#393C56;" vertex="1" parent="5FP1IzFym2wmlCKe2uCG-120">
          <mxGeometry y="70" width="180" height="30" as="geometry" />
        </mxCell>
        <mxCell id="5FP1IzFym2wmlCKe2uCG-125" value="" style="shape=partialRectangle;connectable=0;fillColor=none;top=0;left=0;bottom=0;right=0;editable=1;overflow=hidden;whiteSpace=wrap;html=1;strokeColor=#E07A5F;rounded=1;labelBackgroundColor=none;fontColor=#393C56;" vertex="1" parent="5FP1IzFym2wmlCKe2uCG-124">
          <mxGeometry width="30" height="30" as="geometry">
            <mxRectangle width="30" height="30" as="alternateBounds" />
          </mxGeometry>
        </mxCell>
        <mxCell id="5FP1IzFym2wmlCKe2uCG-126" value="name" style="shape=partialRectangle;connectable=0;fillColor=none;top=0;left=0;bottom=0;right=0;align=left;spacingLeft=6;overflow=hidden;whiteSpace=wrap;html=1;strokeColor=#E07A5F;rounded=1;labelBackgroundColor=none;fontColor=#393C56;" vertex="1" parent="5FP1IzFym2wmlCKe2uCG-124">
          <mxGeometry x="30" width="150" height="30" as="geometry">
            <mxRectangle width="150" height="30" as="alternateBounds" />
          </mxGeometry>
        </mxCell>
        <mxCell id="5FP1IzFym2wmlCKe2uCG-129" style="shape=tableRow;horizontal=0;startSize=0;swimlaneHead=0;swimlaneBody=0;fillColor=none;collapsible=0;dropTarget=0;points=[[0,0.5],[1,0.5]];portConstraint=eastwest;top=0;left=0;right=0;bottom=0;strokeColor=#E07A5F;rounded=1;labelBackgroundColor=none;fontColor=#393C56;" vertex="1" parent="5FP1IzFym2wmlCKe2uCG-120">
          <mxGeometry y="100" width="180" height="30" as="geometry" />
        </mxCell>
        <mxCell id="5FP1IzFym2wmlCKe2uCG-130" style="shape=partialRectangle;connectable=0;fillColor=none;top=0;left=0;bottom=0;right=0;editable=1;overflow=hidden;whiteSpace=wrap;html=1;strokeColor=#E07A5F;rounded=1;labelBackgroundColor=none;fontColor=#393C56;" vertex="1" parent="5FP1IzFym2wmlCKe2uCG-129">
          <mxGeometry width="30" height="30" as="geometry">
            <mxRectangle width="30" height="30" as="alternateBounds" />
          </mxGeometry>
        </mxCell>
        <mxCell id="5FP1IzFym2wmlCKe2uCG-131" value="price" style="shape=partialRectangle;connectable=0;fillColor=none;top=0;left=0;bottom=0;right=0;align=left;spacingLeft=6;overflow=hidden;whiteSpace=wrap;html=1;strokeColor=#E07A5F;rounded=1;labelBackgroundColor=none;fontColor=#393C56;" vertex="1" parent="5FP1IzFym2wmlCKe2uCG-129">
          <mxGeometry x="30" width="150" height="30" as="geometry">
            <mxRectangle width="150" height="30" as="alternateBounds" />
          </mxGeometry>
        </mxCell>
        <mxCell id="5FP1IzFym2wmlCKe2uCG-127" style="edgeStyle=orthogonalEdgeStyle;rounded=1;orthogonalLoop=1;jettySize=auto;html=1;startArrow=ERmandOne;startFill=0;endArrow=ERoneToMany;endFill=0;strokeColor=#E07A5F;labelBackgroundColor=none;fontColor=default;" edge="1" parent="1" source="5FP1IzFym2wmlCKe2uCG-121" target="5FP1IzFym2wmlCKe2uCG-114">
          <mxGeometry relative="1" as="geometry">
            <mxPoint x="730" y="250" as="sourcePoint" />
            <mxPoint x="800" y="350" as="targetPoint" />
            <Array as="points">
              <mxPoint x="760" y="470" />
              <mxPoint x="760" y="365" />
            </Array>
          </mxGeometry>
        </mxCell>
      </root>
    </mxGraphModel>
  </diagram>
</mxfile>
